<svg width="116" height="97" viewBox="0 0 116 97" fill="none" xmlns="http://www.w3.org/2000/svg">
<path d="M86.3651 29.7869C86.3218 29.7867 86.2782 29.7865 86.2349 29.7865C79.0039 29.7751 72.1528 26.651 67.4001 21.1832C60.3199 13.0378 49.8835 7.9061 38.2538 7.95797C17.1454 8.05174 -0.269741 25.8458 0.00316441 47.0234C0.274716 68.0834 17.3741 85.0719 38.4283 85.0719C44.3746 85.0719 50.005 83.716 55.0299 81.2959C59.3626 79.2093 64.5252 79.7595 68.3407 82.6913C73.2758 86.4838 79.4443 88.7415 86.1385 88.7528C102.251 88.7797 115.479 75.6121 115.573 59.4453C115.667 43.1272 102.606 29.8827 86.3651 29.7869V29.7869Z" fill="url(#paint0_linear_101_1735)"/>
<path opacity="0.1" d="M95.8114 1.58966H46.1777C44.3096 1.58966 42.7936 3.11075 42.7936 4.98516V23.6099H24.8927C23.9545 23.6099 23.1941 24.3729 23.1941 25.3142V41.2972C23.1941 42.2384 23.9545 43.0015 24.8927 43.0015H42.7936V70.7482H19.3336C18.0867 70.7482 17.0757 71.7624 17.0757 73.0137V88.5562C17.0757 89.8073 18.0865 90.8218 19.3336 90.8218H75.05C76.2969 90.8218 77.308 89.8075 77.308 88.5562V79.5105H95.8114C97.6795 79.5105 99.1955 77.9894 99.1955 76.115V4.98516C99.1955 3.11098 97.6795 1.58966 95.8114 1.58966V1.58966Z" fill="#2626BC"/>
<path d="M85.6213 96.044C84.9978 96.044 84.4926 95.5371 84.4926 94.9116C84.4926 94.1613 83.8843 93.5507 83.1365 93.5507C82.513 93.5507 82.0078 93.0438 82.0078 92.4182C82.0078 91.7927 82.513 91.2858 83.1365 91.2858C83.8843 91.2858 84.4926 90.6755 84.4926 89.9249C84.4926 89.2993 84.9978 88.7925 85.6213 88.7925C86.2447 88.7925 86.7499 89.2993 86.7499 89.9249C86.7499 90.6752 87.3583 91.2858 88.1063 91.2858C88.7298 91.2858 89.235 91.7927 89.235 92.4182C89.235 93.0438 88.7298 93.5507 88.1063 93.5507C87.3585 93.5507 86.7499 94.161 86.7499 94.9116C86.7499 95.5371 86.2447 96.044 85.6213 96.044Z" fill="#6583FE"/>
<path d="M28.001 7.25471C27.3778 7.25471 26.8724 6.74782 26.8724 6.12226C26.8724 5.37122 26.2634 4.75992 25.5146 4.75992C24.8914 4.75992 24.386 4.25303 24.386 3.62747C24.386 3.0019 24.8914 2.49502 25.5146 2.49502C26.2634 2.49502 26.8724 1.88395 26.8724 1.13245C26.8724 0.506885 27.3778 0 28.001 0C28.6243 0 29.1297 0.506885 29.1297 1.13245C29.1297 1.88372 29.7387 2.49502 30.4874 2.49502C31.1107 2.49502 31.6161 3.0019 31.6161 3.62747C31.6161 4.25303 31.1107 4.75992 30.4874 4.75992C29.7387 4.75992 29.1297 5.37099 29.1297 6.12226C29.1297 6.74782 28.6243 7.25471 28.001 7.25471Z" fill="#6583FE"/>
<path d="M23.1942 24.5714C22.8948 24.5714 22.6077 24.4523 22.396 24.2396L19.9096 21.7446C19.6978 21.5321 19.5791 21.2443 19.5791 20.9439C19.5791 20.6436 19.6981 20.3555 19.9096 20.1433L22.396 17.6485C22.8368 17.2061 23.5513 17.2061 23.9921 17.6485L26.4785 20.1433C26.6902 20.3557 26.809 20.6436 26.809 20.9439C26.809 21.2443 26.69 21.5324 26.4785 21.7446L23.9921 24.2396C23.7806 24.4523 23.4935 24.5714 23.1942 24.5714ZM22.3039 20.9439L23.1942 21.8372L24.0844 20.9439L23.1942 20.0509L22.3039 20.9439Z" fill="#6583FE"/>
<path d="M35.4637 20.8773C34.8404 20.8773 34.335 20.3704 34.335 19.7449C34.335 18.9937 33.726 18.3824 32.9773 18.3824C32.354 18.3824 31.8486 17.8756 31.8486 17.25C31.8486 16.6245 32.354 16.1176 32.9773 16.1176C33.726 16.1176 34.335 15.5066 34.335 14.7554C34.335 14.1298 34.8404 13.623 35.4637 13.623C36.0869 13.623 36.5923 14.1298 36.5923 14.7554C36.5923 15.5064 37.2013 16.1176 37.9501 16.1176C38.5733 16.1176 39.0787 16.6245 39.0787 17.25C39.0787 17.8756 38.5733 18.3824 37.9501 18.3824C37.2013 18.3824 36.5923 18.9935 36.5923 19.7449C36.5923 20.3702 36.0869 20.8773 35.4637 20.8773Z" fill="#6583FE"/>
<path d="M99.1954 9.74143V80.8712C99.1954 82.7456 97.6794 84.2667 95.8112 84.2667H46.1776C44.3095 84.2667 42.7935 82.7456 42.7935 80.8712V9.74143C42.7935 7.86703 44.3095 6.34595 46.1776 6.34595H95.8112C97.6794 6.34595 99.1954 7.86703 99.1954 9.74143V9.74143Z" fill="#6583FE"/>
<path d="M42.7935 75.5038V80.871C42.7935 82.7454 44.3095 84.2665 46.1776 84.2665H95.8112C97.6794 84.2665 99.1954 82.7454 99.1954 80.871V75.5038H42.7935Z" fill="white"/>
<path d="M55.1078 6.3454V84.2666H46.1778C44.3106 84.2666 42.7932 82.7464 42.7932 80.8706V9.74134C42.7932 7.86784 44.3106 6.3454 46.1778 6.3454H55.1078Z" fill="white"/>
<path d="M51.0617 33.2796V49.2625C51.0617 50.2026 50.303 50.9661 49.3637 50.9661H42.7932V31.5737H49.3637C50.3032 31.5737 51.0617 32.3372 51.0617 33.2796V33.2796Z" fill="#B7C5FF"/>
<path d="M99.1954 17.2501V9.74142C99.1954 7.86612 97.6803 6.34595 95.8112 6.34595H46.1776C44.3085 6.34595 42.7935 7.86612 42.7935 9.74142V17.2503L99.1954 17.2501Z" fill="white"/>
<path d="M72.1133 42.7458H68.5612C67.9707 42.7458 67.4434 43.1789 67.3874 43.7687C67.3231 44.4453 67.8515 45.0147 68.5127 45.0147H72.1133C72.7376 45.0147 73.2437 44.5069 73.2437 43.8804C73.2437 43.2539 72.7376 42.7458 72.1133 42.7458V42.7458Z" fill="#2626BC"/>
<path d="M85.7564 42.7458H77.3097C76.6853 42.7458 76.1792 43.2537 76.1792 43.8803C76.1792 44.5068 76.6853 45.0147 77.3097 45.0147H85.8049C86.4661 45.0147 86.9945 44.4452 86.9302 43.7686C86.8742 43.179 86.3469 42.7458 85.7564 42.7458V42.7458Z" fill="#2626BC"/>
<path d="M80.242 47.4954H68.5617C67.9712 47.4954 67.4441 47.9284 67.3879 48.5181C67.3235 49.1946 67.852 49.764 68.5131 49.764H80.2422C80.8666 49.764 81.3727 49.2562 81.3727 48.6298C81.3725 48.0031 80.8664 47.4954 80.242 47.4954V47.4954Z" fill="#2626BC"/>
<path d="M92.5302 47.4954H85.4381C84.8137 47.4954 84.3076 48.0031 84.3076 48.6296C84.3076 49.256 84.8137 49.7638 85.4381 49.7638H92.5788C93.2399 49.7638 93.7684 49.1944 93.704 48.5179C93.6481 47.9284 93.1208 47.4954 92.5302 47.4954V47.4954Z" fill="#2626BC"/>
<path d="M76.8547 52.2445H68.5612C67.9707 52.2445 67.4434 52.6776 67.3874 53.2674C67.3231 53.9439 67.8515 54.5133 68.5127 54.5133H76.8549C77.4793 54.5133 77.9854 54.0055 77.9854 53.379C77.9854 52.7525 77.4793 52.2445 76.8547 52.2445Z" fill="#2626BC"/>
<path d="M85.7565 52.2445H82.0513C81.427 52.2445 80.9209 52.7523 80.9209 53.3788C80.9209 54.0053 81.427 54.5131 82.0513 54.5131H85.8052C86.4664 54.5131 86.9948 53.9437 86.9305 53.2672C86.8743 52.6778 86.347 52.2445 85.7565 52.2445Z" fill="#2626BC"/>
<path d="M92.5305 56.9942H78.6646C78.0403 56.9942 77.5342 57.502 77.5342 58.1284C77.5342 58.7549 78.0403 59.2626 78.6646 59.2626H92.579C93.2402 59.2626 93.7686 58.6933 93.7043 58.0168C93.6481 57.4272 93.1208 56.9942 92.5305 56.9942Z" fill="#2626BC"/>
<path d="M73.4679 56.9942H68.5612C67.9707 56.9942 67.4434 57.4272 67.3874 58.017C67.3231 58.6935 67.8515 59.2628 68.5127 59.2628H73.4679C74.0922 59.2628 74.5983 58.7551 74.5983 58.1286C74.5985 57.502 74.0922 56.9942 73.4679 56.9942Z" fill="#2626BC"/>
<path d="M65.5658 34.8505H61.788C61.1975 34.8505 60.6702 35.2836 60.6142 35.8733C60.5499 36.5498 61.0783 37.1192 61.7395 37.1192H65.5658C66.1901 37.1192 66.6964 36.6114 66.6964 35.985C66.6962 35.3585 66.1901 34.8505 65.5658 34.8505V34.8505Z" fill="#2626BC"/>
<path d="M85.7564 34.8504H71.0628C70.4384 34.8504 69.9321 35.3581 69.9321 35.9845C69.9321 36.6109 70.4382 37.1186 71.0628 37.1186H85.8049C86.4661 37.1186 86.9945 36.5493 86.9302 35.8729C86.8742 35.2836 86.3469 34.8504 85.7564 34.8504V34.8504Z" fill="#2626BC"/>
<path d="M65.5653 65.5624H61.7875C61.197 65.5624 60.6697 65.9955 60.6137 66.5852C60.5494 67.2617 61.0778 67.8311 61.739 67.8311H65.5653C66.1896 67.8311 66.696 67.3233 66.696 66.6969C66.6957 66.07 66.1896 65.5624 65.5653 65.5624V65.5624Z" fill="#2626BC"/>
<path d="M85.7564 65.5624H71.0628C70.4384 65.5624 69.9321 66.0702 69.9321 66.6969C69.9321 67.3233 70.4382 67.8311 71.0628 67.8311H85.8049C86.4661 67.8311 86.9945 67.2617 86.9302 66.5852C86.8742 65.9955 86.3469 65.5624 85.7564 65.5624V65.5624Z" fill="#2626BC"/>
<path d="M49.3639 47.7574H24.8927C23.9546 47.7574 23.1941 46.9944 23.1941 46.0531V30.0701C23.1941 29.1288 23.9546 28.3658 24.8927 28.3658H49.3639C50.3021 28.3658 51.0625 29.1288 51.0625 30.0701V46.0531C51.0625 46.9944 50.3021 47.7574 49.3639 47.7574Z" fill="white"/>
<path d="M31.8482 41.9217C31.5593 41.9217 31.2701 41.8109 31.0498 41.5898L28.3318 38.8627C27.8907 38.4201 27.8907 37.7029 28.3318 37.2603L31.0498 34.5332C31.4904 34.0908 32.206 34.0908 32.6466 34.5332C33.0877 34.9757 33.0877 35.693 32.6466 36.1356L30.7272 38.0614L32.6466 39.9872C33.0877 40.4298 33.0877 41.1471 32.6466 41.5896C32.4263 41.8111 32.1371 41.9217 31.8482 41.9217Z" fill="#2626BC"/>
<path d="M42.4085 34.2018C42.6974 34.2018 42.9866 34.3125 43.2069 34.5336L45.9249 37.2607C46.3659 37.7032 46.3659 38.4205 45.9249 38.863L43.2067 41.5899C42.766 42.0322 42.0505 42.0322 41.6099 41.5899C41.1688 41.1473 41.1688 40.4301 41.6099 39.9875L43.5292 38.0617L41.6099 36.1359C41.1688 35.6934 41.1688 34.9761 41.6099 34.5336C41.8304 34.3125 42.1196 34.2018 42.4085 34.2018V34.2018Z" fill="#2626BC"/>
<path d="M35.5925 41.922C35.4045 41.922 35.2137 41.8747 35.0385 41.7755C34.4954 41.4677 34.3038 40.7767 34.6106 40.2318L37.68 34.7778C37.9866 34.2331 38.6755 34.0408 39.2184 34.3483C39.7615 34.6561 39.9531 35.3471 39.6463 35.8921L36.5769 41.3461C36.3692 41.7148 35.9866 41.922 35.5925 41.922V41.922Z" fill="#2626BC"/>
<path d="M75.05 95.5773H19.3336C18.0867 95.5773 17.0757 94.5631 17.0757 93.3117V77.7694C17.0757 76.5183 18.0865 75.5038 19.3336 75.5038H75.05C76.2969 75.5038 77.308 76.518 77.308 77.7694V93.3117C77.308 94.5628 76.2972 95.5773 75.05 95.5773V95.5773Z" fill="white"/>
<path d="M51.3847 10.6493C50.7615 10.6493 50.2561 11.1561 50.2561 11.7816V11.8145C50.2561 12.44 50.7615 12.9468 51.3847 12.9468C52.008 12.9468 52.5134 12.44 52.5134 11.8145V11.7816C52.5134 11.1564 52.0082 10.6493 51.3847 10.6493Z" fill="#2626BC"/>
<path d="M55.7449 10.6493C55.1216 10.6493 54.6162 11.1561 54.6162 11.7816V11.8145C54.6162 12.44 55.1216 12.9468 55.7449 12.9468C56.3681 12.9468 56.8735 12.44 56.8735 11.8145V11.7816C56.8735 11.1564 56.3681 10.6493 55.7449 10.6493Z" fill="#2626BC"/>
<path d="M60.1045 10.6493C59.481 10.6493 58.9758 11.1561 58.9758 11.7816V11.8145C58.9758 12.44 59.481 12.9468 60.1045 12.9468C60.7279 12.9468 61.2331 12.44 61.2331 11.8145V11.7816C61.2331 11.1564 60.7279 10.6493 60.1045 10.6493Z" fill="#2626BC"/>
<path d="M95.8114 5.21326H46.1777C43.6893 5.21326 41.665 7.24462 41.665 9.74118V22.1305C41.665 22.756 42.1704 23.2629 42.7936 23.2629C43.4168 23.2629 43.9222 22.756 43.9222 22.1305V18.3823H98.0668V80.8704C98.0668 82.1182 97.0551 83.1333 95.8114 83.1333H78.4366V77.7692C78.4366 75.8957 76.9174 74.3712 75.05 74.3712H49.012C48.3887 74.3712 47.8833 74.8781 47.8833 75.5036C47.8833 76.1292 48.3887 76.636 49.012 76.636H75.0502C75.673 76.636 76.1795 77.1443 76.1795 77.7692V93.3116C76.1795 93.9365 75.673 94.4447 75.0502 94.4447H19.3336C18.7108 94.4447 18.2043 93.9365 18.2043 93.3116V77.7692C18.2043 77.1443 18.7108 76.636 19.3336 76.636H42.7936C43.4168 76.636 43.9222 76.1292 43.9222 75.5036V48.8898H49.3639C50.9228 48.8898 52.1909 47.6174 52.1909 46.0533V30.0704C52.1909 28.5063 50.9225 27.2339 49.3639 27.2339H24.8926C23.3338 27.2339 22.0654 28.5063 22.0654 30.0704V36.9295H20.9142C18.1754 36.9295 15.947 39.1652 15.947 41.9132V49.2916C15.947 52.0398 18.1754 54.2755 20.9142 54.2755H29.935C31.4365 54.2755 32.6579 55.5012 32.6579 57.0076C32.6579 58.5139 31.4363 59.7397 29.935 59.7397H20.9142C18.1754 59.7397 15.947 61.9753 15.947 64.7235C15.947 67.4717 18.1754 69.7074 20.9142 69.7074H29.5237C31.018 69.7074 32.2336 70.927 32.2336 72.4261V74.3716H19.3336C17.4664 74.3716 15.947 75.8959 15.947 77.7696V93.312C15.947 95.1855 17.4662 96.71 19.3336 96.71H75.05C76.9172 96.71 78.4366 95.1857 78.4366 93.312V85.3986H95.8114C98.2996 85.3986 100.324 83.3674 100.324 80.8709V9.74141C100.324 7.24462 98.2996 5.21326 95.8114 5.21326V5.21326ZM24.3227 30.0702C24.3227 29.7549 24.5784 29.4985 24.8926 29.4985H49.3641C49.6783 29.4985 49.9338 29.7551 49.9338 30.0702V46.0531C49.9338 46.3684 49.6783 46.6248 49.3641 46.6248H24.8926C24.5784 46.6248 24.3227 46.3681 24.3227 46.0531V30.0702ZM29.5237 67.4425H20.9142C19.4199 67.4425 18.2043 66.2226 18.2043 64.7235C18.2043 63.2244 19.4199 62.0046 20.9142 62.0046H29.935C32.6812 62.0046 34.9152 59.763 34.9152 57.0076C34.9152 54.2521 32.6812 52.0106 29.935 52.0106H20.9142C19.4199 52.0106 18.2043 50.7907 18.2043 49.2916V41.9132C18.2043 40.414 19.4199 39.1944 20.9142 39.1944H22.0654V46.0533C22.0654 47.6174 23.3338 48.8898 24.8926 48.8898H41.665V74.3716H34.4908V72.4261C34.4908 69.6781 32.2627 67.4425 29.5237 67.4425V67.4425ZM43.9222 16.1177V9.74141C43.9222 8.49346 44.934 7.47835 46.1777 7.47835H95.8114C97.0551 7.47835 98.0668 8.49346 98.0668 9.74141V16.1177H43.9222Z" fill="#2626BC"/>
<path d="M50.7502 56.4922C50.7502 55.8666 50.2448 55.3597 49.6216 55.3597C48.9983 55.3597 48.4929 55.8666 48.4929 56.4922V56.5252C48.4929 57.1508 48.9983 57.6577 49.6216 57.6577C50.2448 57.6577 50.7502 57.1508 50.7502 56.5252V56.4922Z" fill="#2626BC"/>
<path d="M49.6216 65.6298C48.9983 65.6298 48.4929 66.1366 48.4929 66.7622V66.7953C48.4929 67.4208 48.9983 67.9277 49.6216 67.9277C50.2448 67.9277 50.7502 67.4208 50.7502 66.7953V66.7622C50.7502 66.1371 50.2448 65.6298 49.6216 65.6298Z" fill="#2626BC"/>
<path d="M23.427 81.156C23.427 80.5305 22.9216 80.0236 22.2983 80.0236C21.6751 80.0236 21.1697 80.5305 21.1697 81.156V81.182C21.1697 81.8075 21.6751 82.3144 22.2983 82.3144C22.9216 82.3144 23.427 81.8075 23.427 81.182V81.156Z" fill="#2626BC"/>
<path d="M28.9587 81.156C28.9587 80.5305 28.4533 80.0236 27.8301 80.0236C27.2068 80.0236 26.7014 80.5305 26.7014 81.156V81.182C26.7014 81.8075 27.2068 82.3144 27.8301 82.3144C28.4533 82.3144 28.9587 81.8075 28.9587 81.182V81.156Z" fill="#2626BC"/>
<path d="M33.362 82.3144C33.9853 82.3144 34.4907 81.8075 34.4907 81.182V81.156C34.4907 80.5305 33.9853 80.0236 33.362 80.0236C32.7388 80.0236 32.2334 80.5305 32.2334 81.156V81.182C32.2334 81.8075 32.7388 82.3144 33.362 82.3144Z" fill="#2626BC"/>
<path d="M40.0224 81.182V81.156C40.0224 80.5305 39.517 80.0236 38.8938 80.0236C38.2705 80.0236 37.7651 80.5305 37.7651 81.156V81.182C37.7651 81.8075 38.2705 82.3144 38.8938 82.3144C39.517 82.3144 40.0224 81.8075 40.0224 81.182Z" fill="#2626BC"/>
<path d="M45.5544 81.182V81.156C45.5544 80.5305 45.049 80.0236 44.4258 80.0236C43.8025 80.0236 43.2971 80.5305 43.2971 81.156V81.182C43.2971 81.8075 43.8025 82.3144 44.4258 82.3144C45.049 82.3144 45.5544 81.8075 45.5544 81.182Z" fill="#2626BC"/>
<path d="M51.0861 81.182V81.156C51.0861 80.5305 50.5807 80.0236 49.9575 80.0236C49.3343 80.0236 48.8289 80.5305 48.8289 81.156V81.182C48.8289 81.8075 49.3343 82.3144 49.9575 82.3144C50.5807 82.3144 51.0861 81.8075 51.0861 81.182Z" fill="#2626BC"/>
<path d="M56.6181 81.182V81.156C56.6181 80.5305 56.1127 80.0236 55.4895 80.0236C54.8662 80.0236 54.3608 80.5305 54.3608 81.156V81.182C54.3608 81.8075 54.8662 82.3144 55.4895 82.3144C56.1127 82.3144 56.6181 81.8075 56.6181 81.182Z" fill="#2626BC"/>
<path d="M61.0212 82.3144C61.6447 82.3144 62.1499 81.8075 62.1499 81.182V81.156C62.1499 80.5305 61.6447 80.0236 61.0212 80.0236C60.3978 80.0236 59.8926 80.5305 59.8926 81.156V81.182C59.8926 81.8075 60.3978 82.3144 61.0212 82.3144Z" fill="#2626BC"/>
<path d="M66.553 82.3144C67.1764 82.3144 67.6816 81.8075 67.6816 81.182V81.156C67.6816 80.5305 67.1764 80.0236 66.553 80.0236C65.9295 80.0236 65.4243 80.5305 65.4243 81.156V81.182C65.4243 81.8075 65.9295 82.3144 66.553 82.3144Z" fill="#2626BC"/>
<path d="M72.0849 82.3144C72.7084 82.3144 73.2136 81.8075 73.2136 81.182V81.156C73.2136 80.5305 72.7084 80.0236 72.0849 80.0236C71.4615 80.0236 70.9563 80.5305 70.9563 81.156V81.182C70.9563 81.8075 71.4615 82.3144 72.0849 82.3144Z" fill="#2626BC"/>
<path d="M23.9358 85.5276V85.5537C23.9358 86.1793 24.4412 86.6862 25.0644 86.6862C25.6877 86.6862 26.1931 86.1793 26.1931 85.5537V85.5276C26.1931 84.902 25.6877 84.3951 25.0644 84.3951C24.4412 84.3951 23.9358 84.902 23.9358 85.5276Z" fill="#2626BC"/>
<path d="M29.4675 85.5276V85.5537C29.4675 86.1793 29.9729 86.6862 30.5962 86.6862C31.2194 86.6862 31.7248 86.1793 31.7248 85.5537V85.5276C31.7248 84.902 31.2194 84.3951 30.5962 84.3951C29.9729 84.3951 29.4675 84.902 29.4675 85.5276Z" fill="#2626BC"/>
<path d="M37.2565 85.5537V85.5276C37.2565 84.902 36.7511 84.3951 36.1279 84.3951C35.5047 84.3951 34.9993 84.902 34.9993 85.5276V85.5537C34.9993 86.1793 35.5047 86.6862 36.1279 86.6862C36.7511 86.6862 37.2565 86.1793 37.2565 85.5537Z" fill="#2626BC"/>
<path d="M42.7883 85.5537V85.5276C42.7883 84.902 42.2829 84.3951 41.6596 84.3951C41.0364 84.3951 40.531 84.902 40.531 85.5276V85.5537C40.531 86.1793 41.0364 86.6862 41.6596 86.6862C42.2829 86.6862 42.7883 86.1793 42.7883 85.5537Z" fill="#2626BC"/>
<path d="M47.1919 84.3951C46.5686 84.3951 46.0632 84.902 46.0632 85.5276V85.5537C46.0632 86.1793 46.5686 86.6862 47.1919 86.6862C47.8151 86.6862 48.3205 86.1793 48.3205 85.5537V85.5276C48.3205 84.902 47.8151 84.3951 47.1919 84.3951Z" fill="#2626BC"/>
<path d="M53.8525 85.5537V85.5276C53.8525 84.902 53.3471 84.3951 52.7239 84.3951C52.1006 84.3951 51.5952 84.902 51.5952 85.5276V85.5537C51.5952 86.1793 52.1006 86.6862 52.7239 86.6862C53.3471 86.6862 53.8525 86.1793 53.8525 85.5537Z" fill="#2626BC"/>
<path d="M59.3842 85.5537V85.5276C59.3842 84.902 58.8791 84.3951 58.2556 84.3951C57.6324 84.3951 57.127 84.902 57.127 85.5276V85.5537C57.127 86.1793 57.6324 86.6862 58.2556 86.6862C58.8791 86.6862 59.3842 86.1793 59.3842 85.5537Z" fill="#2626BC"/>
<path d="M64.916 85.5537V85.5276C64.916 84.902 64.4108 84.3951 63.7873 84.3951C63.1639 84.3951 62.6587 84.902 62.6587 85.5276V85.5537C62.6587 86.1793 63.1639 86.6862 63.7873 86.6862C64.4108 86.6862 64.916 86.1793 64.916 85.5537Z" fill="#2626BC"/>
<path d="M70.448 85.5537V85.5276C70.448 84.902 69.9428 84.3951 69.3193 84.3951C68.6959 84.3951 68.1907 84.902 68.1907 85.5276V85.5537C68.1907 86.1793 68.6959 86.6862 69.3193 86.6862C69.9428 86.6862 70.448 86.1793 70.448 85.5537Z" fill="#2626BC"/>
<path d="M22.2983 88.7668C21.6751 88.7668 21.1697 89.2737 21.1697 89.8992V89.9253C21.1697 90.5509 21.6751 91.0577 22.2983 91.0577C22.9216 91.0577 23.427 90.5509 23.427 89.9253V89.8992C23.427 89.2737 22.9216 88.7668 22.2983 88.7668Z" fill="#2626BC"/>
<path d="M27.8301 88.7668C27.2068 88.7668 26.7014 89.2737 26.7014 89.8992V89.9253C26.7014 90.5509 27.2068 91.0577 27.8301 91.0577C28.4533 91.0577 28.9587 90.5509 28.9587 89.9253V89.8992C28.9587 89.2737 28.4535 88.7668 27.8301 88.7668Z" fill="#2626BC"/>
<path d="M32.2334 89.9251C32.2334 90.5506 32.7388 91.0575 33.362 91.0575H55.4893C56.1125 91.0575 56.618 90.5506 56.618 89.9251C56.618 89.2995 56.1125 88.7927 55.4893 88.7927H33.362C32.7388 88.7927 32.2334 89.2995 32.2334 89.9251Z" fill="#2626BC"/>
<path d="M59.8926 89.9253C59.8926 90.5509 60.3978 91.0577 61.0212 91.0577C61.6447 91.0577 62.1499 90.5509 62.1499 89.9253V89.8992C62.1499 89.2737 61.6447 88.7668 61.0212 88.7668C60.3978 88.7668 59.8926 89.2737 59.8926 89.8992V89.9253Z" fill="#2626BC"/>
<path d="M65.4243 89.9253C65.4243 90.5509 65.9295 91.0577 66.553 91.0577C67.1764 91.0577 67.6816 90.5509 67.6816 89.9253V89.8992C67.6816 89.2737 67.1764 88.7668 66.553 88.7668C65.9295 88.7668 65.4243 89.2737 65.4243 89.8992V89.9253Z" fill="#2626BC"/>
<path d="M70.9563 89.9253C70.9563 90.5509 71.4615 91.0577 72.0849 91.0577C72.7084 91.0577 73.2136 90.5509 73.2136 89.9253V89.8992C73.2136 89.2737 72.7084 88.7668 72.0849 88.7668C71.4615 88.7668 70.9563 89.2737 70.9563 89.8992V89.9253Z" fill="#2626BC"/>
<path d="M54.6162 74.3717H98.8141V76.6366H54.6162V74.3717Z" fill="#2626BC"/>
<defs>
<linearGradient id="paint0_linear_101_1735" x1="-6.95672" y1="32.7335" x2="119.39" y2="70.8422" gradientUnits="userSpaceOnUse">
<stop stop-color="#D2DEFF" stop-opacity="0"/>
<stop offset="1" stop-color="#B7C5FF"/>
</linearGradient>
</defs>
</svg>
