<svg width="120" height="97" viewBox="0 0 120 97" fill="none" xmlns="http://www.w3.org/2000/svg">
<path d="M89.2796 29.11C89.2348 29.1098 89.1898 29.1095 89.145 29.1095C81.67 29.0978 74.5877 25.8598 69.6746 20.1926C62.3555 11.7503 51.5669 6.43145 39.5447 6.48521C17.724 6.58262 -0.278844 25.0255 0.0032712 46.9752C0.283987 68.803 17.9604 86.4109 39.7251 86.4109C45.8721 86.4109 51.6925 85.0055 56.887 82.4973C61.3658 80.3346 66.7027 80.9048 70.6469 83.9435C75.7486 87.8743 82.1252 90.2142 89.0453 90.226C105.702 90.2539 119.376 76.6061 119.473 59.8499C119.57 42.9366 106.069 29.2095 89.2796 29.11V29.11Z" fill="url(#paint0_linear_101_1798)"/>
<path opacity="0.1" d="M106.287 22.4484C106.287 12.1271 97.97 3.75983 87.71 3.75983C79.8856 3.75983 73.1961 8.62844 70.4585 15.5163H14.5686C12.3852 15.5163 10.6152 17.2969 10.6152 19.4932V71.3357C10.6152 73.5322 12.3852 75.3128 14.5686 75.3128H86.5435C88.7269 75.3128 90.4968 73.5322 90.4968 71.3357V40.9268C99.4344 39.5742 106.287 31.8168 106.287 22.4484V22.4484Z" fill="#2626BC"/>
<path d="M62.4147 95.537H38.697L41.7882 83.2092L43.44 76.6241H57.6718L59.3236 83.2092L62.4147 95.537Z" fill="white"/>
<path d="M86.5435 80.2421H14.5686C12.3852 80.2421 10.6152 78.4615 10.6152 76.2653V24.4229C10.6152 22.2264 12.3852 20.4461 14.5686 20.4461H86.5435C88.7269 20.4461 90.4969 22.2266 90.4969 24.4229V76.2653C90.4969 78.4615 88.7269 80.2421 86.5435 80.2421Z" fill="white"/>
<path d="M86.5433 20.4459H60.6677V80.242H86.5433C88.7267 80.242 90.4966 78.4615 90.4966 76.265V24.4229C90.4966 22.2264 88.7267 20.4459 86.5433 20.4459Z" fill="#6583FE"/>
<path d="M38.6665 66.5363H31.6705C31.0104 66.5363 30.4751 65.9978 30.4751 65.3338C30.4751 64.6697 31.0102 64.1312 31.6705 64.1312H38.6665C39.3266 64.1312 39.8619 64.6697 39.8619 65.3338C39.8619 65.9978 39.3266 66.5363 38.6665 66.5363Z" fill="#2626BC"/>
<path d="M47.5064 66.5363H44.5717C43.9115 66.5363 43.3762 65.9978 43.3762 65.3338C43.3762 64.6697 43.9113 64.1312 44.5717 64.1312H47.5064C48.1666 64.1312 48.7019 64.6697 48.7019 65.3338C48.7019 65.9978 48.1668 66.5363 47.5064 66.5363Z" fill="#2626BC"/>
<path d="M47.5068 71.3063H31.6705C31.0104 71.3063 30.4751 70.7678 30.4751 70.1038C30.4751 69.4397 31.0102 68.9012 31.6705 68.9012H47.5068C48.1669 68.9012 48.7022 69.4397 48.7022 70.1038C48.7022 70.7678 48.1672 71.3063 47.5068 71.3063Z" fill="#B7C5FF"/>
<path d="M20.8633 70.1916C20.5539 70.1916 20.2571 70.0679 20.0384 69.8479L18.4102 68.2099C17.9544 67.7514 17.9544 67.0082 18.4102 66.55C18.8654 66.0918 19.6046 66.0918 20.0599 66.55L20.8631 67.358L23.7285 64.4753C24.1838 64.0171 24.923 64.0171 25.3783 64.4753C25.834 64.9338 25.834 65.677 25.3783 66.1352L21.6879 69.8479C21.4695 70.0679 21.1727 70.1916 20.8633 70.1916Z" fill="#2626BC"/>
<path d="M90.4969 30.5796V24.4229C90.4969 22.2264 88.7269 20.4459 86.5435 20.4459H14.5686C12.3854 20.4459 10.6152 22.2264 10.6152 24.4229V30.5796H90.4969Z" fill="white"/>
<path d="M10.6152 69.6417V76.265C10.6152 78.4615 12.3852 80.2418 14.5686 80.2418H86.5435C88.7267 80.2418 90.4969 78.4613 90.4969 76.265V69.6417H10.6152Z" fill="white"/>
<path d="M18.5786 26.7021C17.9341 26.7021 17.4119 26.1764 17.4119 25.5282V25.4977C17.4119 24.8495 17.9341 24.3239 18.5786 24.3239C19.2231 24.3239 19.7454 24.8495 19.7454 25.4977V25.5282C19.7454 26.1764 19.2231 26.7021 18.5786 26.7021Z" fill="#2626BC"/>
<path d="M22.6196 26.7018C21.9751 26.7018 21.4529 26.1762 21.4529 25.5281V25.4975C21.4529 24.8494 21.9751 24.3238 22.6196 24.3238C23.2641 24.3238 23.7863 24.8494 23.7863 25.4975V25.5281C23.7863 26.1762 23.2641 26.7018 22.6196 26.7018Z" fill="#2626BC"/>
<path d="M26.6606 26.7018C26.0161 26.7018 25.4939 26.1762 25.4939 25.5281V25.4975C25.4939 24.8494 26.0161 24.3238 26.6606 24.3238C27.3052 24.3238 27.8274 24.8494 27.8274 25.4975V25.5281C27.8274 26.1762 27.3049 26.7018 26.6606 26.7018Z" fill="#2626BC"/>
<path d="M96.4227 39.5374V71.2724C96.4227 73.1456 94.3506 74.2653 92.7989 73.2301L89 70.6949C88.2183 70.1738 87.2032 70.1738 86.4215 70.6949L82.6203 73.2301C81.0709 74.2653 78.9988 73.1456 78.9988 71.2724V39.5374H96.4227Z" fill="white"/>
<path d="M100.831 40.596C108.084 33.2988 108.084 21.4677 100.831 14.1705C93.5769 6.87331 81.8162 6.87331 74.5625 14.1705C67.3088 21.4677 67.3088 33.2988 74.5625 40.596C81.8162 47.8932 93.5769 47.8932 100.831 40.596Z" fill="white"/>
<path d="M97.3684 37.113C102.71 31.7395 102.71 23.0272 97.3684 17.6537C92.0269 12.2802 83.3665 12.2802 78.025 17.6537C72.6834 23.0272 72.6834 31.7395 78.025 37.113C83.3665 42.4866 92.0269 42.4865 97.3684 37.113Z" fill="#6583FE"/>
<path d="M85.7636 32.0803H84.5196C83.001 32.0803 81.7654 30.8373 81.7654 29.3095V25.4463C81.7654 23.9185 83.001 22.6757 84.5196 22.6757H85.7636C87.2822 22.6757 88.5178 23.9185 88.5178 25.4463V29.3095C88.5178 30.8373 87.2822 32.0803 85.7636 32.0803ZM84.5196 25.0232C84.2876 25.0232 84.0989 25.2131 84.0989 25.4463V29.3095C84.0989 29.5429 84.2876 29.7328 84.5196 29.7328H85.7636C85.9955 29.7328 86.1843 29.5429 86.1843 29.3095V25.4463C86.1843 25.2129 85.9955 25.0232 85.7636 25.0232H84.5196Z" fill="#2626BC"/>
<path d="M92.4878 32.0803C91.8433 32.0803 91.3211 31.5547 91.3211 30.9066V25.0232H91.2175C90.573 25.0232 90.0508 24.4976 90.0508 23.8495C90.0508 23.2013 90.573 22.6757 91.2175 22.6757H92.4878C93.1323 22.6757 93.6545 23.2013 93.6545 23.8495V30.9066C93.6545 31.5547 93.1323 32.0803 92.4878 32.0803Z" fill="#2626BC"/>
<path d="M87.71 62.9108C88.3545 62.9108 88.8767 62.3852 88.8767 61.7371V47.2024C99.2221 46.5926 107.454 37.9357 107.454 27.378C107.454 16.4261 98.5967 7.51587 87.71 7.51587C79.6924 7.51587 72.7809 12.3509 69.6921 19.2723H14.5681C11.7448 19.2723 9.44824 21.5829 9.44824 24.4229V30.5797C9.44824 31.2279 9.97047 31.7534 10.615 31.7534H68.4549C69.6809 37.2155 73.148 41.8291 77.8317 44.5641V68.4681H11.7817V37.1925C11.7817 36.5443 11.2595 36.0187 10.615 36.0187C9.97047 36.0187 9.44824 36.5443 9.44824 37.1925V76.2654C9.44824 79.1056 11.7451 81.4159 14.5681 81.4159H41.0347L37.7872 94.3623H34.6769C34.0324 94.3623 33.5102 94.8879 33.5102 95.536C33.5102 96.1842 34.0324 96.7098 34.6769 96.7098H66.4346C67.0791 96.7098 67.6014 96.1842 67.6014 95.536C67.6014 94.8879 67.0791 94.3623 66.4346 94.3623H63.3244L60.0769 81.4159H86.5432C89.3665 81.4159 91.6633 79.1053 91.6633 76.2654V73.8809L92.154 74.2081C93.2305 74.9262 94.606 74.99 95.7436 74.3757C96.8814 73.7612 97.5882 72.5724 97.5882 71.2733V50.344C97.5882 49.6959 97.066 49.1703 96.4215 49.1703C95.777 49.1703 95.2547 49.6959 95.2547 50.344V71.2733C95.2547 71.9071 94.8247 72.2076 94.6399 72.3074C94.4548 72.4074 93.9688 72.602 93.4433 72.2515L89.6442 69.7174C88.4693 68.9339 86.9507 68.9339 85.7758 69.7174L81.9764 72.2515C81.4523 72.6013 80.9651 72.4074 80.7803 72.3074C80.5952 72.2076 80.1652 71.9069 80.1652 71.2733V45.7296C82.1498 46.5585 84.2963 47.07 86.5432 47.2024V61.7371C86.5432 62.3852 87.0655 62.9108 87.71 62.9108V62.9108ZM60.9179 94.3625H40.1937L43.4412 81.4162H57.6706L60.9179 94.3625ZM81.3321 74.7954C82.0077 74.7954 82.6811 74.5983 83.2659 74.2083L87.065 71.6743C87.457 71.413 87.9629 71.413 88.3547 71.6743L89.3299 72.3248V76.2656C89.3299 77.8112 88.0798 79.0687 86.5432 79.0687H14.5681C13.0315 79.0687 11.7817 77.8112 11.7817 76.2656V70.8161H77.8317V71.2738C77.8317 72.5731 78.5385 73.7619 79.6763 74.3762C80.196 74.6562 80.7647 74.7954 81.3321 74.7954V74.7954ZM11.7817 29.406V24.4229C11.7817 22.8773 13.0315 21.6198 14.5681 21.6198H68.8152C68.265 23.4435 67.9661 25.3759 67.9661 27.378C67.9661 28.0626 68.0006 28.7391 68.0683 29.406H11.7817ZM70.2995 27.378C70.2995 25.1588 70.7163 23.0369 71.4679 21.0813C71.5496 20.9543 71.6067 20.8108 71.6347 20.6564C74.2604 14.3253 80.476 9.86331 87.7097 9.86331C97.3098 9.86331 105.12 17.7204 105.12 27.378C105.12 37.0357 97.3096 44.8925 87.7097 44.8925C78.1099 44.8925 70.2995 37.0357 70.2995 27.378V27.378Z" fill="#2626BC"/>
<path d="M38.6662 38.902H31.6703C31.0102 38.902 30.4749 38.3635 30.4749 37.6995C30.4749 37.0354 31.0099 36.4969 31.6703 36.4969H38.6662C39.3264 36.4969 39.8617 37.0354 39.8617 37.6995C39.8614 38.3635 39.3264 38.902 38.6662 38.902Z" fill="#2626BC"/>
<path d="M47.5069 38.902H44.5721C43.912 38.902 43.3767 38.3635 43.3767 37.6995C43.3767 37.0354 43.9118 36.4969 44.5721 36.4969H47.5069C48.1671 36.4969 48.7024 37.0354 48.7024 37.6995C48.7024 38.3635 48.1673 38.902 47.5069 38.902Z" fill="#2626BC"/>
<path d="M47.5066 43.6717H31.6703C31.0101 43.6717 30.4749 43.1333 30.4749 42.4693C30.4749 41.8053 31.0099 41.2668 31.6703 41.2668H47.5066C48.1667 41.2668 48.702 41.8053 48.702 42.4693C48.702 43.1333 48.1669 43.6717 47.5066 43.6717Z" fill="#2626BC"/>
<path d="M20.8633 42.5571C20.5539 42.5571 20.2571 42.4334 20.0384 42.2134L18.4102 40.5753C17.9544 40.1168 17.9544 39.3736 18.4102 38.9154C18.8654 38.4571 19.6046 38.4571 20.0599 38.9154L20.8631 39.7234L23.7285 36.8406C24.1838 36.3824 24.923 36.3824 25.3783 36.8406C25.834 37.2991 25.834 38.0423 25.3783 38.5006L21.6879 42.2134C21.4695 42.4334 21.1727 42.5571 20.8633 42.5571Z" fill="#2626BC"/>
<path d="M38.6662 52.7191H31.6703C31.0102 52.7191 30.4749 52.1806 30.4749 51.5165C30.4749 50.8524 31.0099 50.3138 31.6703 50.3138H38.6662C39.3264 50.3138 39.8617 50.8524 39.8617 51.5165C39.8614 52.1808 39.3264 52.7191 38.6662 52.7191Z" fill="#2626BC"/>
<path d="M47.5069 52.7191H44.5721C43.912 52.7191 43.3767 52.1806 43.3767 51.5165C43.3767 50.8524 43.9118 50.3138 44.5721 50.3138H47.5069C48.1671 50.3138 48.7024 50.8524 48.7024 51.5165C48.7024 52.1808 48.1673 52.7191 47.5069 52.7191Z" fill="#2626BC"/>
<path d="M47.5066 57.4892H31.6703C31.0101 57.4892 30.4749 56.9507 30.4749 56.2866C30.4749 55.6224 31.0099 55.0839 31.6703 55.0839H47.5066C48.1667 55.0839 48.702 55.6224 48.702 56.2866C48.702 56.9507 48.1669 57.4892 47.5066 57.4892Z" fill="#2626BC"/>
<path d="M20.8633 56.3745C20.5539 56.3745 20.2571 56.2507 20.0384 56.0308L18.4102 54.3927C17.9544 53.9343 17.9544 53.1911 18.4102 52.7329C18.8654 52.2746 19.6046 52.2746 20.0599 52.7329L20.8631 53.5409L23.7285 50.6582C24.1838 50.2 24.923 50.2 25.3783 50.6582C25.834 51.1166 25.834 51.8598 25.3783 52.3181L21.6879 56.0308C21.4695 56.2507 21.1727 56.3745 20.8633 56.3745Z" fill="#2626BC"/>
<path d="M69.2223 52.859C68.9239 52.859 68.6252 52.7444 68.3975 52.5153C67.9418 52.0569 67.9418 51.3139 68.3972 50.8554L68.9353 50.3144L68.3972 49.773C67.9418 49.3146 67.9418 48.5714 68.3975 48.1132C68.8532 47.6549 69.5917 47.6547 70.0474 48.1132L71.4101 49.4843C71.8656 49.9428 71.8656 50.6857 71.4101 51.1439L70.0474 52.5148C69.8197 52.7444 69.521 52.859 69.2223 52.859V52.859Z" fill="#2626BC"/>
<path d="M57.9803 39.548H63.3561C63.7434 39.548 64.0573 39.8637 64.0573 40.2534V60.4348C64.0573 60.8245 63.7434 61.1402 63.3561 61.1402H57.9803C57.5929 61.1402 57.2791 60.8245 57.2791 60.4348V40.2534C57.2791 39.8637 57.5929 39.548 57.9803 39.548V39.548Z" fill="white"/>
<path d="M63.3561 62.3138H57.9802C56.9503 62.3138 56.1123 61.4708 56.1123 60.4347V40.2533C56.1123 39.2171 56.9503 38.3741 57.9802 38.3741H63.3561C64.3861 38.3741 65.224 39.2171 65.224 40.2533V60.4347C65.224 61.4708 64.3861 62.3138 63.3561 62.3138ZM58.4458 59.9664H62.8905V40.7216H58.4458V59.9664Z" fill="#2626BC"/>
<path d="M62.4147 10.8453C62.1163 10.8453 61.8176 10.7307 61.5898 10.5016L59.0186 7.91531C58.7997 7.69512 58.6768 7.39677 58.6768 7.08528C58.6768 6.77378 58.7995 6.47543 59.0186 6.25524L61.5898 3.66891C61.8087 3.44873 62.1053 3.32526 62.4147 3.32526C62.7241 3.32526 63.021 3.44896 63.2396 3.66891L65.8106 6.25524C66.2663 6.71369 66.2663 7.45686 65.8106 7.91507L63.2396 10.5014C63.0121 10.7305 62.7134 10.8453 62.4147 10.8453V10.8453ZM61.4937 7.08528L62.4147 8.01178L63.3355 7.08528L62.4147 6.15877L61.4937 7.08528Z" fill="#6583FE"/>
<path d="M25.7203 96.71C25.4109 96.71 25.1141 96.5863 24.8955 96.3663L22.3245 93.7798C21.8687 93.3214 21.8687 92.5782 22.3245 92.1199L24.8955 89.5334C25.1143 89.3132 25.4109 89.1898 25.7203 89.1898C26.0298 89.1898 26.3266 89.3135 26.5452 89.5334L29.1164 92.1199C29.3353 92.3401 29.4583 92.6385 29.4583 92.95C29.4583 93.2615 29.3356 93.5599 29.1164 93.7801L26.5452 96.3666C26.3266 96.5863 26.03 96.71 25.7203 96.71V96.71ZM24.7996 92.9498L25.7203 93.8763L26.6414 92.9498L25.7203 92.0232L24.7996 92.9498Z" fill="#6583FE"/>
<path d="M106.287 49.3068C105.642 49.3068 105.12 48.7812 105.12 48.133C105.12 47.3541 104.49 46.7206 103.716 46.7206C103.072 46.7206 102.549 46.195 102.549 45.5468C102.549 44.8987 103.072 44.3731 103.716 44.3731C104.49 44.3731 105.12 43.7395 105.12 42.9607C105.12 42.3125 105.642 41.7869 106.287 41.7869C106.931 41.7869 107.454 42.3125 107.454 42.9607C107.454 43.7395 108.084 44.3731 108.858 44.3731C109.503 44.3731 110.025 44.8987 110.025 45.5468C110.025 46.195 109.503 46.7206 108.858 46.7206C108.084 46.7206 107.454 47.3541 107.454 48.133C107.454 48.7812 106.931 49.3068 106.287 49.3068Z" fill="#6583FE"/>
<path d="M51.8027 7.51983C51.1582 7.51983 50.636 6.99424 50.636 6.34611C50.636 5.56722 50.0062 4.93364 49.2317 4.93364C48.5872 4.93364 48.0649 4.40805 48.0649 3.75992C48.0649 3.11178 48.5872 2.58619 49.2317 2.58619C50.0059 2.58619 50.636 1.95261 50.636 1.17373C50.636 0.525595 51.1582 0 51.8027 0C52.4472 0 52.9695 0.525595 52.9695 1.17373C52.9695 1.95261 53.5993 2.58619 54.3735 2.58619C55.018 2.58619 55.5403 3.11178 55.5403 3.75992C55.5403 4.40805 55.018 4.93364 54.3735 4.93364C53.5995 4.93364 52.9695 5.56722 52.9695 6.34611C52.9695 6.99424 52.4472 7.51983 51.8027 7.51983Z" fill="#6583FE"/>
<defs>
<linearGradient id="paint0_linear_101_1798" x1="4.35196e-06" y1="48.3555" x2="119.473" y2="48.3555" gradientUnits="userSpaceOnUse">
<stop stop-color="#D2DEFF" stop-opacity="0"/>
<stop offset="1" stop-color="#B7C5FF"/>
</linearGradient>
</defs>
</svg>
