<svg width="141" height="97" viewBox="0 0 142 98" fill="none" xmlns="http://www.w3.org/2000/svg">
<path d="M133.56 25.4861C123.896 15.5117 108.815 14.1357 97.6562 21.3579C94.4816 23.4125 90.6374 24.1015 86.9495 23.2799C78.2206 21.3351 69.0895 22.6634 61.3124 26.8986C56.0839 29.7457 49.7155 29.2507 44.8366 25.8359C41.5977 23.5693 37.8368 21.945 33.7039 21.1809C18.3732 18.346 3.46805 28.5485 0.520976 43.9074C-2.49302 59.6145 7.88464 74.7095 23.5279 77.5056C27.3499 78.1887 31.1294 78.0735 34.6967 77.2791C40.4863 75.99 46.5353 78.1454 50.2716 82.7663C52.63 85.6831 55.4739 88.2862 58.7771 90.4491C75.8481 101.625 98.7168 96.8003 109.856 79.6723C109.868 79.6543 109.879 79.6359 109.891 79.6179C111.931 76.4689 115.104 74.2239 118.774 73.4806C124.125 72.3965 129.227 69.7614 133.363 65.5742C144.251 54.5499 144.341 36.6147 133.56 25.4861V25.4861Z" fill="url(#paint0_linear_101_1837)"/>
<path opacity="0.1" d="M133.015 69.4031V49.5944C133.015 48.0617 131.776 46.8189 130.249 46.8189H116.695V16.5056C116.695 14.2066 114.837 12.3425 112.545 12.3425H37.0034C34.712 12.3425 32.8542 14.2063 32.8542 16.5056V38.4927H11.3387C9.81113 38.4927 8.57251 39.7352 8.57251 41.2682V69.4031H133.015Z" fill="#2626BC"/>
<path d="M87.2227 95.9424H62.3259L65.5863 82.9846L67.3064 76.145H82.2422L83.9623 82.9846L87.2227 95.9424Z" fill="white"/>
<path d="M112.546 79.9324H37.0039C34.7125 79.9324 32.8547 78.0686 32.8547 75.7693V21.5003C32.8547 19.2012 34.7122 17.3372 37.0039 17.3372H112.546C114.837 17.3372 116.695 19.2009 116.695 21.5003V75.7693C116.695 78.0684 114.837 79.9324 112.546 79.9324Z" fill="white"/>
<path d="M105.332 48.8367H44.2171C43.7588 48.8367 43.3875 48.464 43.3875 48.0043V27.9451H106.162V48.0045C106.162 48.464 105.79 48.8367 105.332 48.8367V48.8367Z" fill="#6583FE"/>
<path d="M80.652 55.3284H51.1952C50.4314 55.3284 49.8125 54.7071 49.8125 53.941C49.8125 53.175 50.4314 52.5537 51.1952 52.5537H80.652C81.4158 52.5537 82.0347 53.175 82.0347 53.941C82.0347 54.7071 81.4156 55.3284 80.652 55.3284Z" fill="#2626BC"/>
<path d="M80.652 60.8777H51.1952C50.4314 60.8777 49.8125 60.2565 49.8125 59.4905C49.8125 58.7245 50.4314 58.1033 51.1952 58.1033H80.652C81.4158 58.1033 82.0347 58.7245 82.0347 59.4905C82.0347 60.2565 81.4156 60.8777 80.652 60.8777Z" fill="#2626BC"/>
<path d="M95.309 60.8777H90.7406C89.9768 60.8777 89.3579 60.2565 89.3579 59.4905C89.3579 58.7245 89.9768 58.1033 90.7406 58.1033H95.309C96.0728 58.1033 96.6917 58.7245 96.6917 59.4905C96.6917 60.2565 96.0725 60.8777 95.309 60.8777Z" fill="#2626BC"/>
<path d="M116.695 27.9453V21.5003C116.695 19.2012 114.837 17.3372 112.546 17.3372H37.0039C34.7125 17.3372 32.8547 19.2009 32.8547 21.5003V27.9453H116.695Z" fill="white"/>
<path d="M32.8547 68.8359V75.7693C32.8547 78.0684 34.7125 79.9324 37.0039 79.9324H112.546C114.837 79.9324 116.695 78.0686 116.695 75.7693V68.8359H32.8547Z" fill="white"/>
<path d="M130.249 95.9424H109.78C108.252 95.9424 107.014 94.6999 107.014 93.1669V54.589C107.014 53.0562 108.252 51.8135 109.78 51.8135H130.249C131.777 51.8135 133.015 53.056 133.015 54.589V93.1669C133.015 94.6996 131.777 95.9424 130.249 95.9424Z" fill="#6583FE"/>
<path d="M107.014 78.7446V93.1669C107.014 94.6996 108.252 95.9424 109.78 95.9424H130.249C131.777 95.9424 133.015 94.6999 133.015 93.1669V78.7446H107.014Z" fill="white"/>
<path d="M125.28 55.7587L126.561 51.8135H113.468L114.748 55.7587C114.934 56.33 115.465 56.7168 116.063 56.7168H123.965C124.564 56.7168 125.095 56.33 125.28 55.7587V55.7587Z" fill="white"/>
<path d="M48.4046 95.9424H11.3387C9.81113 95.9424 8.57251 94.6999 8.57251 93.1669V46.2626C8.57251 44.7298 9.81085 43.4871 11.3387 43.4871H48.4046C49.9322 43.4871 51.1708 44.7296 51.1708 46.2626V93.1669C51.1705 94.6996 49.9322 95.9424 48.4046 95.9424Z" fill="white"/>
<path d="M51.1705 52.5537V46.2626C51.1705 44.7299 49.9321 43.4871 48.4043 43.4871H11.3387C9.81112 43.4871 8.57251 44.7296 8.57251 46.2626V52.5537H51.1705Z" fill="white"/>
<path d="M24.479 90.3518H15.9063C15.4481 90.3518 15.0767 89.9792 15.0767 89.5194V59.692C15.0767 59.2323 15.4481 58.8596 15.9063 58.8596H24.479C24.9372 58.8596 25.3086 59.2323 25.3086 59.692V89.5194C25.3086 89.9792 24.9372 90.3518 24.479 90.3518Z" fill="#6583FE"/>
<path d="M43.8367 69.1257H30.0098C29.5516 69.1257 29.1802 68.7531 29.1802 68.2933V59.692C29.1802 59.2323 29.5516 58.8596 30.0098 58.8596H43.8367C44.2949 58.8596 44.6663 59.2323 44.6663 59.692V68.2933C44.6663 68.7531 44.2949 69.1257 43.8367 69.1257Z" fill="#6583FE"/>
<path d="M43.8367 90.3518H30.0098C29.5516 90.3518 29.1802 89.9792 29.1802 89.5194V73.8282C29.1802 73.3685 29.5516 72.9958 30.0098 72.9958H43.8367C44.2949 72.9958 44.6663 73.3685 44.6663 73.8282V89.5194C44.6663 89.9792 44.2949 90.3518 43.8367 90.3518Z" fill="#6583FE"/>
<path d="M41.2128 21.2375C40.449 21.2375 39.8301 21.8589 39.8301 22.625V22.6569C39.8301 23.4231 40.449 24.0444 41.2128 24.0444C41.9766 24.0444 42.5955 23.4231 42.5955 22.6569V22.625C42.5955 21.8589 41.9766 21.2375 41.2128 21.2375Z" fill="#2626BC"/>
<path d="M45.454 21.2375C44.6902 21.2375 44.0713 21.8589 44.0713 22.625V22.6569C44.0713 23.4231 44.6902 24.0444 45.454 24.0444C46.2178 24.0444 46.8367 23.4231 46.8367 22.6569V22.625C46.8367 21.8589 46.2178 21.2375 45.454 21.2375Z" fill="#2626BC"/>
<path d="M49.6957 21.2375C48.9319 21.2375 48.313 21.8589 48.313 22.625V22.6569C48.313 23.4231 48.9319 24.0444 49.6957 24.0444C50.4595 24.0444 51.0784 23.4231 51.0784 22.6569V22.625C51.0784 21.8589 50.4595 21.2375 49.6957 21.2375Z" fill="#2626BC"/>
<path d="M130.249 50.4259H118.078V21.4999C118.078 18.4395 115.596 15.9495 112.546 15.9495H37.0041C33.9538 15.9495 31.4722 18.4395 31.4722 21.4999V35.8455C31.4722 36.6116 32.0911 37.2329 32.8549 37.2329C33.6187 37.2329 34.2376 36.6116 34.2376 35.8455V29.3323H115.313V50.4259H109.78C107.493 50.4259 105.631 52.2933 105.631 54.5887V61.1941C105.631 61.9602 106.25 62.5815 107.014 62.5815C107.778 62.5815 108.397 61.9602 108.397 61.1941V54.5887C108.397 53.8232 109.017 53.2006 109.78 53.2006H112.465L113.434 56.1884C113.806 57.334 114.863 58.104 116.064 58.104H123.965C125.166 58.104 126.223 57.3343 126.595 56.1884L127.565 53.2009H130.249C131.012 53.2009 131.633 53.8235 131.633 54.589V93.167C131.633 93.9322 131.012 94.5549 130.249 94.5549H109.78C109.017 94.5549 108.397 93.9322 108.397 93.167V68.8361C108.397 68.0701 107.778 67.4488 107.014 67.4488H52.5538V46.2628C52.5538 43.9676 50.6927 42.1002 48.4049 42.1002H11.3393C9.05181 42.1002 7.19043 43.9676 7.19043 46.2628V93.167C7.19043 95.4622 9.05153 97.3296 11.3393 97.3296H48.4049C50.6924 97.3296 52.5538 95.4622 52.5538 93.167V81.32H64.5794L61.2507 94.5552H58.1095C57.3457 94.5552 56.7268 95.1764 56.7268 95.9425C56.7268 96.7086 57.3457 97.3298 58.1095 97.3298H91.4409C92.2047 97.3298 92.8236 96.7086 92.8236 95.9425C92.8236 95.1764 92.2047 94.5552 91.4409 94.5552H88.2997L84.9713 81.32H105.632V93.167C105.632 95.4622 107.493 97.3296 109.78 97.3296H130.25C132.537 97.3296 134.398 95.4622 134.398 93.167V54.5887C134.398 52.2935 132.537 50.4259 130.249 50.4259V50.4259ZM34.2378 26.5576V21.4999C34.2378 19.9694 35.4787 18.7241 37.0043 18.7241H112.546C114.072 18.7241 115.313 19.9694 115.313 21.4999V26.5576H34.2378ZM123.965 55.3293H116.063L115.373 53.2009H124.657L123.965 55.3293ZM11.3393 44.8743H48.4049C49.1679 44.8743 49.7884 45.497 49.7884 46.2622V51.1659H9.95582V46.2622C9.95582 45.497 10.5764 44.8743 11.3393 44.8743V44.8743ZM49.7884 93.1667C49.7884 93.932 49.1679 94.5546 48.4049 94.5546H11.3393C10.5764 94.5546 9.95582 93.932 9.95582 93.1667V53.9409H49.7884V93.1667ZM85.4478 94.5549H64.1026L67.431 81.3197H82.1194L85.4478 94.5549ZM52.5538 78.545V70.2232H105.632V78.545H52.5538Z" fill="#2626BC"/>
<path d="M15.8107 49.4238C16.5745 49.4238 17.1934 48.8026 17.1934 48.0365V48.0046C17.1934 47.2384 16.5745 46.6172 15.8107 46.6172C15.0469 46.6172 14.428 47.2384 14.428 48.0046V48.0365C14.428 48.8026 15.0469 49.4238 15.8107 49.4238Z" fill="#2626BC"/>
<path d="M20.0519 49.4238C20.8157 49.4238 21.4346 48.8026 21.4346 48.0365V48.0046C21.4346 47.2384 20.8157 46.6172 20.0519 46.6172C19.2881 46.6172 18.6692 47.2384 18.6692 48.0046V48.0365C18.6692 48.8026 19.2881 49.4238 20.0519 49.4238Z" fill="#2626BC"/>
<path d="M24.2936 49.4238C25.0574 49.4238 25.6763 48.8026 25.6763 48.0365V48.0046C25.6763 47.2384 25.0574 46.6172 24.2936 46.6172C23.5298 46.6172 22.9109 47.2384 22.9109 48.0046V48.0365C22.9109 48.8026 23.5298 49.4238 24.2936 49.4238Z" fill="#2626BC"/>
<path d="M74.1395 37.6429L74.7753 37.0053L75.4111 37.6429C75.6812 37.9137 76.0349 38.0491 76.3886 38.0491C76.7423 38.0491 77.0966 37.9137 77.3665 37.6426C77.9063 37.1007 77.9063 36.2225 77.3662 35.6806L75.7529 34.062C75.2133 33.5204 74.3373 33.5204 73.7977 34.062L72.1844 35.6806C71.6443 36.2225 71.6443 37.1007 72.1841 37.6426C72.7242 38.1848 73.6 38.1848 74.1395 37.6429V37.6429Z" fill="#2626BC"/>
<path d="M117.252 89.4731H113.381C112.922 89.4731 112.551 89.1005 112.551 88.6407V64.8251C112.551 64.3653 112.922 63.9927 113.381 63.9927H117.252C117.71 63.9927 118.082 64.3653 118.082 64.8251V88.6407C118.082 89.1005 117.71 89.4731 117.252 89.4731Z" fill="white"/>
<path d="M117.252 89.4731H113.381C112.922 89.4731 112.551 89.1005 112.551 88.6407V64.8251C112.551 64.3653 112.922 63.9927 113.381 63.9927H117.252C117.71 63.9927 118.082 64.3653 118.082 64.8251V88.6407C118.082 89.1005 117.71 89.4731 117.252 89.4731Z" stroke="#2626BC" stroke-width="3.70649" stroke-miterlimit="10"/>
<path d="M110.034 9.50342C109.27 9.50342 108.651 8.88219 108.651 8.11613C108.651 7.19802 107.907 6.45138 106.992 6.45138C106.228 6.45138 105.609 5.83015 105.609 5.06409C105.609 4.29802 106.228 3.6768 106.992 3.6768C107.907 3.6768 108.651 2.93016 108.651 2.01205C108.651 1.24598 109.27 0.624756 110.034 0.624756C110.797 0.624756 111.416 1.24598 111.416 2.01205C111.416 2.93016 112.16 3.6768 113.075 3.6768C113.839 3.6768 114.458 4.29802 114.458 5.06409C114.458 5.83015 113.839 6.45138 113.075 6.45138C112.16 6.45138 111.416 7.19802 111.416 8.11613C111.416 8.88247 110.797 9.50342 110.034 9.50342Z" fill="#6583FE"/>
<path d="M126.561 45.4663C125.797 45.4663 125.178 44.8451 125.178 44.079C125.178 43.1608 124.434 42.4142 123.518 42.4142C122.755 42.4142 122.136 41.7929 122.136 41.0269C122.136 40.2608 122.755 39.6395 123.518 39.6395C124.434 39.6395 125.178 38.8929 125.178 37.9747C125.178 37.2086 125.797 36.5874 126.561 36.5874C127.324 36.5874 127.943 37.2086 127.943 37.9747C127.943 38.8929 128.688 39.6395 129.602 39.6395C130.366 39.6395 130.985 40.2608 130.985 41.0269C130.985 41.7929 130.366 42.4142 129.602 42.4142C128.688 42.4142 127.943 43.1608 127.943 44.079C127.943 44.8451 127.324 45.4663 126.561 45.4663Z" fill="#6583FE"/>
<path d="M122.689 15.6565C122.336 15.6565 121.981 15.5211 121.712 15.2503L118.67 12.1982C118.13 11.6564 118.13 10.7779 118.67 10.2363L121.712 7.18428C122.251 6.64268 123.127 6.64268 123.667 7.18428L126.709 10.2363C127.249 10.7782 127.249 11.6566 126.709 12.1982L123.667 15.2503C123.397 15.5211 123.043 15.6565 122.689 15.6565V15.6565ZM121.603 11.2171L122.689 12.3073L123.776 11.2171L122.689 10.127L121.603 11.2171Z" fill="#6583FE"/>
<path d="M20.1931 35.752C19.8394 35.752 19.4852 35.6166 19.2155 35.3458L16.1736 32.2937C15.6335 31.7518 15.6335 30.8734 16.1736 30.3318L19.2155 27.2797C19.7551 26.7381 20.6312 26.7381 21.1707 27.2797L24.2126 30.3318C24.7527 30.8737 24.7527 31.7521 24.2126 32.2937L21.1707 35.3458C20.9008 35.6166 20.5468 35.752 20.1931 35.752V35.752ZM19.1066 31.3126L20.1931 32.4027L21.2796 31.3126L20.1931 30.2225L19.1066 31.3126Z" fill="#6583FE"/>
<path d="M100.476 41.9316C101.329 41.9316 102.021 42.6261 102.021 43.4825C102.021 44.339 101.329 45.0334 100.476 45.0334C99.6219 45.0334 98.9297 44.339 98.9297 43.4825C98.9297 42.6261 99.6219 41.9316 100.476 41.9316Z" fill="#2626BC"/>
<path d="M100.476 37.2395C101.329 37.2395 102.021 37.934 102.021 38.7905C102.021 39.6471 101.329 40.3416 100.476 40.3416C99.6219 40.3416 98.9297 39.6471 98.9297 38.7905C98.9297 37.934 99.6219 37.2395 100.476 37.2395Z" fill="#2626BC"/>
<path d="M100.476 32.5476C101.329 32.5476 102.021 33.242 102.021 34.0985C102.021 34.955 101.329 35.6494 100.476 35.6494C99.6219 35.6494 98.9297 34.955 98.9297 34.0985C98.9297 33.242 99.6219 32.5476 100.476 32.5476Z" fill="#2626BC"/>
<defs>
<linearGradient id="paint0_linear_101_1837" x1="-8.62968" y1="52.4808" x2="145.393" y2="58.567" gradientUnits="userSpaceOnUse">
<stop stop-color="#D2DEFF" stop-opacity="0"/>
<stop offset="1" stop-color="#B7C5FF"/>
</linearGradient>
</defs>
</svg>
